# xmcd
#
# Track frame offsets:
#	150
#	15106
#	30731
#	52406
#	71843
#	91681
#	107736
#	133981
#	152201
#	164956
#	176680
#	196105
#	214681
#	228430
#
# Disc length: 3254 seconds
#
# Revision: 1
# Processed by: cddbd v1.5.1PL2 Copyright (c) Steve Scherf et al.
# Submitted via: audiograbber 1.83.01
#
DISCID=c50cb40e
DTITLE=Various Artist - Canto Cubano 2 CD2
DYEAR=2006
DGENRE=Salsa
TTITLE0=Omara Portuondo - Que Manera de Quererte
TTITLE1=papa Noel and Papi Oviedo - Limpia mi son
TTITLE2=Candido Fabre y su Banda - De Cuba vengo y cubano soy
TTITLE3=Pio Leyva - Pare Cochero
TTITLE4=Mauricio Venegas - El montuno de Maria
TTITLE5=El Piqueton de Felix Rodon - El Rumbo del Piqueton
TTITLE6=Afro-Cuban All Stars - El son de Baloy
TTITLE7=Gloria Mantancera - Encuentro entre soneros
TTITLE8=Perez Prado And His Orchestra - Historia De Un Amor (The Story Of Love)
TTITLE9=Orchesta Aragón - Noche De Farra
TTITLE10=Delgado Isaac - Cántame Como Ayer
TTITLE11=Septeto Habanero - Voy A La Calle Vapor
TTITLE12=Belisario Lpez y su Orquesta - Con El Cimarron
TTITLE13=Beny Moré and Dueto Fantasma - Mucho Corazon
EXTD=
EXTT0=
EXTT1=
EXTT2=
EXTT3=
EXTT4=
EXTT5=
EXTT6=
EXTT7=
EXTT8=
EXTT9=
EXTT10=
EXTT11=
EXTT12=
EXTT13=
PLAYORDER=
